<?xml version="1.0" standalone="no"?>
<!DOCTYPE svg PUBLIC "-//W3C//DTD SVG 20010904//EN"
 "http://www.w3.org/TR/2001/REC-SVG-20010904/DTD/svg10.dtd">
<svg version="1.0" xmlns="http://www.w3.org/2000/svg"
 width="1280.000000pt" height="1280.000000pt" viewBox="0 0 1280.000000 1280.000000"
 preserveAspectRatio="xMidYMid meet">
<metadata>
Created by potrace 1.11, written by Peter Selinger 2001-2013
</metadata>
<g transform="translate(0.000000,1280.000000) scale(0.100000,-0.100000)"
fill="#000000" stroke="none">
<path d="M6348 9643 c-22 -6 -45 -53 -173 -358 -37 -88 -73 -173 -80 -190 -7
-16 -50 -118 -95 -225 -45 -107 -88 -208 -95 -225 -7 -16 -25 -59 -40 -95 -15
-36 -33 -78 -40 -95 -8 -16 -62 -145 -120 -285 -167 -398 -186 -443 -200 -475
-27 -60 -125 -295 -125 -299 0 -3 -13 -33 -29 -68 -16 -35 -75 -173 -131 -308
-56 -135 -110 -263 -120 -285 -10 -22 -32 -75 -50 -118 -18 -43 -38 -80 -44
-82 -6 -2 -112 -6 -236 -10 -124 -3 -259 -8 -300 -10 -41 -2 -140 -7 -220 -10
-80 -3 -183 -7 -230 -10 -47 -3 -128 -7 -180 -10 -52 -3 -131 -7 -175 -10 -44
-3 -111 -7 -150 -10 -88 -5 -233 -14 -305 -20 -30 -3 -93 -7 -140 -10 -47 -3
-105 -7 -130 -10 -25 -2 -79 -7 -120 -10 -104 -8 -175 -14 -245 -20 -33 -3
-85 -8 -115 -10 -52 -4 -124 -11 -215 -20 -22 -2 -69 -7 -105 -10 -36 -3 -85
-8 -110 -11 -25 -2 -65 -7 -90 -9 -71 -7 -163 -16 -190 -20 -14 -2 -54 -6 -90
-10 -36 -3 -83 -8 -105 -11 -22 -3 -56 -7 -75 -9 -19 -2 -60 -7 -90 -10 -30
-4 -66 -8 -80 -10 -14 -2 -54 -7 -90 -10 -36 -4 -72 -8 -80 -10 -9 -2 -43 -6
-75 -10 -61 -7 -78 -9 -150 -19 -22 -3 -62 -8 -90 -11 -27 -3 -93 -12 -145
-20 -81 -12 -133 -19 -220 -30 -28 -3 -125 -17 -140 -20 -8 -1 -72 -11 -143
-20 -105 -15 -132 -22 -153 -42 -20 -19 -25 -31 -22 -61 4 -40 14 -48 293
-263 50 -38 133 -102 185 -142 287 -222 421 -325 450 -347 34 -26 237 -183
255 -198 14 -11 367 -284 534 -412 378 -290 527 -405 537 -415 7 -5 63 -49
125 -97 63 -48 220 -169 349 -269 129 -99 268 -206 308 -237 41 -32 117 -91
170 -132 53 -41 180 -139 282 -218 l185 -143 1400 6 c770 3 1695 8 2055 9 360
2 953 4 1317 5 364 1 675 6 692 11 17 5 104 67 194 138 155 123 403 318 849
669 114 89 216 169 225 177 10 8 110 87 223 176 113 89 220 173 239 188 19 15
60 47 91 72 32 25 73 57 91 71 45 35 280 221 299 236 23 19 707 558 770 607
77 59 488 383 530 417 19 15 59 47 88 69 56 45 69 73 55 117 -15 43 -38 51
-208 68 -118 11 -167 17 -183 20 -9 1 -55 6 -102 10 -47 4 -87 8 -90 10 -3 2
-43 6 -90 10 -47 4 -92 8 -100 10 -15 3 -68 8 -245 25 -55 6 -122 12 -150 15
-27 3 -77 7 -110 10 -33 3 -78 7 -100 10 -22 2 -76 7 -120 10 -44 4 -91 8
-103 10 -13 2 -63 7 -110 11 -48 3 -94 7 -102 9 -9 2 -65 6 -125 10 -61 3
-117 8 -125 10 -8 2 -64 7 -125 10 -60 4 -112 8 -115 10 -3 2 -53 6 -110 10
-58 3 -121 8 -140 10 -19 2 -80 6 -135 9 -55 4 -120 8 -145 11 -25 2 -94 7
-155 10 -60 3 -126 7 -145 10 -19 2 -80 6 -135 10 -55 3 -131 8 -170 10 -127
8 -318 19 -555 30 -52 2 -138 7 -190 10 -94 5 -201 9 -520 21 -323 12 -304 8
-326 66 -15 42 -125 296 -232 538 -11 25 -32 74 -47 110 -15 36 -35 83 -45
105 -10 22 -46 105 -80 185 -34 80 -75 173 -91 208 -16 35 -29 65 -29 66 0 2
-12 30 -27 62 -15 33 -27 61 -28 64 -3 10 -26 64 -106 247 -44 104 -95 220
-111 258 -17 39 -39 90 -50 115 -11 25 -26 59 -33 75 -8 17 -35 80 -61 140
-25 61 -54 128 -64 150 -10 22 -34 78 -55 125 -20 47 -43 99 -50 115 -7 17
-25 56 -39 88 -14 32 -26 60 -26 62 0 2 -11 28 -24 57 -13 29 -43 98 -66 153
-56 131 -83 156 -152 138z"/>
</g>
</svg>
